<svg xmlns="http://www.w3.org/2000/svg" viewBox="0 0 1269.77 775.58"><defs><style>.cls-1{fill:#fbbc05;}.cls-2{fill:#4285f4;}.cls-3{fill:#e20746;}.cls-4{fill:#34a853;}.cls-5{fill:#b7003d;}.cls-6{fill:#178431;}</style></defs><g id="Layer_2" data-name="Layer 2"><g id="_1" data-name="1"><polygon class="cls-1" points="563.8 775.58 710.21 775.58 710.21 291.56 563.8 437.98 563.8 775.58"/><rect class="cls-2" x="883.76" y="137.98" width="145.36" height="448.23"/><path class="cls-2" d="M284.34,637.66c-88,0-133.68-41.38-136.86-114.59H0C3.18,666.3,100.8,765,272.68,765c82.78,0,151.47-23.74,198.93-65.28L375.8,603.89C356.35,625.09,324.42,637.66,284.34,637.66Z"/><rect class="cls-3" x="884.02" y="586.21" width="145.36" height="189.37"/><polygon class="cls-4" points="1269.77 137.93 1269.77 10.61 710.21 10.61 643.79 10.61 563.8 10.61 563.8 10.71 711.1 137.93 883.57 137.93 883.57 137.97 1028.93 137.97 1028.93 137.93 1269.77 137.93"/><path class="cls-1" d="M12.73,224.93c0,107.13,55,169.25,182.51,204.83L311.58,313.42,246.15,296c-61.54-14.86-88.06-40.32-88.06-84.88,0-49.87,42.43-83.82,106.1-83.82,2.39,0,4.74,0,7.07.14,4.33,0,8.58.12,12.8.29L171,14.67C73.16,45.39,12.73,122.21,12.73,224.93Z"/><path class="cls-4" d="M206.9,432.89l90.19,23.34c70,19.1,99.72,46.68,99.72,92.3,0,21.75-7.49,40.63-21,55.36l95.81,95.81c45.61-39.93,71.62-96.3,71.62-163.9,0-113.53-59.42-177.19-197.35-213.25l-34.3-9.13L195.24,429.76Q201,431.37,206.9,432.89Z"/><path class="cls-3" d="M348.3,8.58A398.38,398.38,0,0,0,298.7,1a.3.3,0,0,1-.13,0Q285.94,0,272.68,0h-1C235,.09,201.21,5.18,171,14.67L284.06,127.75c98.22,4,164.87,53.24,208.29,105.67,1.07,1.3,2.14,2.61,3.19,3.91,44.58,55.4,68.26,124.73,68.26,195.85V113.08C481.43,48.23,403.08,20.43,348.3,8.58Z"/><polygon class="cls-5" points="563.8 10.71 563.8 113.08 563.8 433.18 563.8 437.98 710.21 291.56 710.21 137.93 711.1 137.93 563.8 10.71"/><rect class="cls-6" x="883.57" y="10.61" width="145.36" height="127.32"/></g></g></svg>