<svg xmlns="http://www.w3.org/2000/svg" viewBox="0 0 1246.4 235.41"><defs><style>.cls-1{fill:#16181e;}</style></defs><g id="Layer_2" data-name="Layer 2"><g id="Layer_4" data-name="Layer 4"><path class="cls-1" d="M156.53,169.37c0,39.75-31.18,66-78,66C29,235.41.92,207,0,165.7H42.5c.91,21.1,14.06,33,39.43,33,19.57,0,32.41-10.39,32.41-25.68,0-13.15-8.56-21.09-28.74-26.6l-26-6.72C20.48,129.63,3.67,111.59,3.67,79.79,3.67,41,33.63,15,78.57,15c46.78,0,74,30.88,74.9,67.26h-42.8C109.45,63.9,97.22,51.67,76.13,51.67c-18.35,0-30.58,9.78-30.58,24.15,0,12.84,7.65,20.18,25.38,24.46l28.74,7.64C139.41,118.32,156.53,136.66,156.53,169.37Z"/><path class="cls-1" d="M332.93,155.92c0,47.69-33,79.49-82.55,79.49s-82.54-31.8-82.54-79.49,33-79.49,82.54-79.49S332.93,108.23,332.93,155.92Zm-39.74,0c0-27.21-17.12-45.25-42.81-45.25s-42.8,18-42.8,45.25c0,26.9,17.12,44.94,42.8,44.94S293.19,182.82,293.19,155.92Z"/><path class="cls-1" d="M389.17,0V232.35H349.43V0Z"/><path class="cls-1" d="M529.19,210.65c-10.39,15.28-26.29,24.76-49.52,24.76-43.11,0-73.68-31.8-73.68-79.49s30.57-79.49,73.68-79.49c22.62,1.22,38.52,10.09,48.61,24.46V79.49H568V232.35h-37.3Zm2.14-54.73c0-27.21-17.12-45.25-42.8-45.25s-42.8,18-42.8,45.25c0,26.9,17.12,44.94,42.8,44.94S531.33,182.82,531.33,155.92Z"/><path class="cls-1" d="M592.47,79.49h39.75v27.82c10.39-19.57,29.35-30.88,54.42-30.88,33.93,0,55,25.68,55,64.82v91.1H701.92V148.28c0-22.32-12.23-37.61-33-37.61-22,0-36.68,15.29-36.68,37.61v84.07H592.47Z"/><path class="cls-1" d="M877.09,210.65c-10.39,15.28-26.29,24.76-49.52,24.76-43.11,0-73.68-31.8-73.68-79.49s30.57-79.49,73.68-79.49c22.62,1.22,38.52,10.09,48.61,24.46V79.49h39.74V232.35h-37.3Zm2.14-54.73c0-27.21-17.12-45.25-42.8-45.25s-42.8,18-42.8,45.25c0,26.9,17.12,44.94,42.8,44.94S879.23,182.82,879.23,155.92Z"/><path class="cls-1" d="M1048.29,18.34v214H1006.1v-214Z"/><path class="cls-1" d="M1246.4,18.34V55H1177V232.35h-41.89V55H1066V18.34Z"/></g></g></svg>